<svg xmlns="http://www.w3.org/2000/svg" width="115" height="34" viewBox="0 0 115 34">
  <path fill="#414141" d="M106 19.7c-.4.3-2.41 1.55-1.2-1.8.65-1.8 3.57-9.98 1.4-11.7-1.06-.84-3.26-1.43-4.3-.4-1.05 1.05-.7 3.23-.7 4.9 0 3.4-1.26 6.9-1.9 8.6-1.49 1.25-2.49 1.95-3 2.1 0 0 .86-3.2-1.5-3.1-2.88.12-3.61 3.26-4.4 3.2-1.05-.08.16-2.2-.1-2.8-.13-.3-1-.44-2.4-.4-3.3.1-3.3 2.8-3.3 3.2 0 1.2-.65 3.87-1 5.92-.87.86-3.4 3.08-5.9 3.08-1.6 0-4.08-1.15-4.3-3.6-.05-.6.3-.8.5-.8.3 0 2.27.12 4.6-1 1.9-.92 3-2.3 3-4.2 0-1.1-.09-3.2-4.2-3.2-4.2 0-7.76 1.9-9 5.6-2.15-2-2.55-3.26-2.7-3.7-.2-.6-.15-1.7-2.1-1.7-.1 0-2.5 0-2.5 2.2 0 .8 2 1.9 1.6 2.8-.48 1.1-2.21 6.7-5.7 6.7-3.08 0-1-5.9-.6-7.2.3-.8 1.08-3.6.7-4-.19-.2-.8-.3-1.7-.3-2.7 0-4.5 3.2-5.3 9.1-2.27 2.27-4.3 3.4-6.1 3.4-1.3 0-3.48-.25-4.27-2.73-.18-.57 8.17-2.4 8.17-6.87 0-1.3 0-3.2-4.2-3.2-2.6 0-5 .8-6.7 2.2-.85.7-3.1 3-2.8 7.7-.22.2-1.31.8-3.2.8-3 0-4.7-5.6-4.9-6.5-.71-3.3-3.14-4.13-2.6-4.5 1.08-.79 2.48-.6 6.3-3.4 2.2-1.8 3.4-4.1 3.4-6.6 0-1.4-.49-4.47-4-5.7a20 20 0 0 0-6.6-1c-1.6 0-7 .1-12.2 1.8C3.7 5.2.3 8.8 0 13.8c-.1 1.5.25 4.9 4.7 4.9 4.06 0 5.92-3.2 5.8-4.3-.47.23-2.38.67-3.15-.4-1.59-2.16.1-6.12 3.05-8.1 2.48-1.67 5-2.6 7.4-2.7-.4.6-1.5 2.3-2 3.8-.7 2-6 20-6.9 23.9-.3 1.4-.3 2.08 0 2.1 1.89.16 6.03.23 6.1-.7.38-5.2 2.61-11.5 2.9-13.3.11-.7.7-.8.9-.8.5 0 1 .4 1.3.7.7.9 1.4 2.4 1.3 4.9-.1 2-.28 8.9 5.4 8.9 3.82 0 7.52-2.63 7.8-3.1.4 1 1.9 3.3 6.6 3.3 5.2 0 8.8-3.5 8.9-3.4.1.1.11.3.1.5-.04.8.25 2.85 3.5 2.8 7.05-.1 11.2-5.78 12-9.6 1.31 1.4 2.32 1.83 2.6 1.9 0 .9-1.78 7.8 6.8 7.8 3.37 0 6.2-1.27 8.5-3.8-.17.9-.83 2.68-.5 3.5.04.09 2.58 0 4.3 0 .65 0 .6-.14.65-.34.4-1.52-.26-5.3 3.25-9.96.38-.5.9-.73 1.11-.18 1.02 2.57 3.69 1.63 6.49-1.32-.6 2.28-.9 4.24-.9 5.9 0 2.1.6 6.35 6.4 6.2 7.89-.2 9.8-5.9 9.8-10.1 0-1.22-.74-4.5-4.6-4.4-1.7.04-2.8.7-3.6 1.3zm2.5 5.5c-.4 2.16-2.62 6.85-4.3 6.7-2.17-.2-1.7-4.2-1.4-5.9.4-1.6 1.63-5.65 4.1-5.5 2.46.15 1.99 2.6 1.6 4.7zm-31.1-5.8c2.73-.11 1.48 3.1-.1 4.5-2.26 2-3.38 1.8-3.75 1.49-.47-.4-.17-1.68.69-3.24.9-1.64 1.69-2.69 3.16-2.75zM45.2 21c.08.9-1.7 4.15-5.9 5.3-.41-1.12.26-2.83.7-3.6.32-.57 1.61-3.13 3.5-3.3 1.03-.07 1.6.46 1.7 1.6zM23.7 2.7c.4 0 1.5.4 2.4 1.4.6.7 1.3 1.9 1.1 3.7-.2 1.9-.7 3.6-1.4 4.9-.6 1.1-1.4 2-2.3 2.7-1.56 1.34-4.87 1.54-5.1 1.1-.2-.3-.1-.8.4-2.2.68-2.26 3.23-9.85 3.8-10.7.2-.4.56-.9 1.1-.9z"/>
</svg>
